<svg xmlns="http://www.w3.org/2000/svg" width="1024" height="1024" viewBox="0 0 1024 1024" version="1.1"><path d="M 502 213.590 C 230.643 237.019, 105.962 550.509, 294.285 735.855 C 314.238 755.492, 379.163 756.342, 429.676 737.627 C 460.640 726.155, 463.332 723.705, 446.658 722.171 C 333.925 711.799, 244.155 594.096, 260.814 478.500 C 268.431 425.641, 292.533 378.148, 331.225 339.750 C 344.828 326.250, 352.540 320.457, 341.874 331.750 C 220.131 460.650, 265.968 664.962, 425.707 705.427 C 513.269 727.609, 599.893 651.123, 565.152 582.302 C 555.024 562.237, 542.169 554.268, 501 542.532 C 415.962 518.291, 402.441 418.449, 474.443 346.443 C 531.745 289.139, 618.273 257.657, 686.308 269.359 C 699.526 271.633, 699.931 271.344, 691.322 265.783 C 633.008 228.113, 561.647 208.440, 502 213.590 M 488 260.840 C 450.647 277.577, 427.992 292.812, 402.403 318.402 C 301.276 419.533, 303.177 566.136, 406.500 634.273 C 461.624 670.625, 523.565 664.604, 545.513 620.759 C 550.742 610.314, 550.773 610.796, 544.973 612.178 C 511.412 620.174, 452.969 599.722, 417.139 567.445 C 326.303 485.614, 370.313 320.135, 495.858 271.452 C 505.103 267.868, 507.053 265.431, 504.672 260.438 C 502.467 255.814, 499.031 255.897, 488 260.840 M 656.500 290.082 C 618.269 295.280, 567.030 317.696, 588.867 319.670 C 768.052 335.862, 841.585 562.968, 711.123 697.254 C 701.950 706.696, 694.716 712.236, 702.660 703.735 C 740.416 663.332, 767.197 587.907, 765.720 526.136 C 762.185 378.277, 582.736 274.658, 492.337 368.276 C 442.710 419.670, 459.223 480.164, 528.168 499.539 C 718.102 552.915, 549.093 804.436, 347.033 769.106 C 333.119 766.673, 333.183 766.628, 341.664 772.867 C 428.662 836.855, 557.880 846.919, 657.500 797.465 C 847.137 703.323, 890.885 458.418, 744.500 310.421 C 726.605 292.329, 694.518 284.913, 656.500 290.082 M 540 386.516 C 518.404 390.929, 497.900 405.882, 488.735 423.902 C 484.356 432.513, 484.340 432.447, 490.398 430.921 C 517.396 424.123, 567.963 437.421, 603 460.533 C 712.445 532.728, 681.473 706.879, 548 769.794 C 535.637 775.622, 535.039 776.101, 535.015 780.193 C 534.975 787.330, 539.989 787.390, 555.426 780.435 C 718.649 706.905, 764.976 503.523, 638.947 413.772 C 607.732 391.543, 568.410 380.711, 540 386.516" stroke="none" fill="#080404" fill-rule="evenodd"/></svg>